<mxfile host="Electron" modified="2024-07-07T09:29:54.546Z" agent="Mozilla/5.0 (Windows NT 10.0; Win64; x64) AppleWebKit/537.36 (KHTML, like Gecko) draw.io/23.1.5 Chrome/120.0.6099.109 Electron/28.1.0 Safari/537.36" etag="S20jdu0aLz2wOIcQ1-rP" version="23.1.5" type="device">
  <diagram name="Page-1" id="3TUpHSHA1gtK3B0JEU8y">
    <mxGraphModel dx="447" dy="271" grid="1" gridSize="10" guides="1" tooltips="1" connect="1" arrows="1" fold="1" page="1" pageScale="1" pageWidth="583" pageHeight="413" math="0" shadow="0">
      <root>
        <mxCell id="0" />
        <mxCell id="1" parent="0" />
        <mxCell id="0A4ECjPYEgnLE-gKC64b-30" value="" style="endArrow=none;html=1;rounded=0;" edge="1" parent="1">
          <mxGeometry width="50" height="50" relative="1" as="geometry">
            <mxPoint x="110" y="280" as="sourcePoint" />
            <mxPoint x="140" y="420" as="targetPoint" />
            <Array as="points">
              <mxPoint x="100" y="310" />
              <mxPoint x="100" y="410" />
              <mxPoint x="110" y="420" />
            </Array>
          </mxGeometry>
        </mxCell>
        <mxCell id="0A4ECjPYEgnLE-gKC64b-31" value="" style="endArrow=none;html=1;rounded=0;" edge="1" parent="1">
          <mxGeometry width="50" height="50" relative="1" as="geometry">
            <mxPoint x="110" y="280" as="sourcePoint" />
            <mxPoint x="170" y="280" as="targetPoint" />
          </mxGeometry>
        </mxCell>
        <mxCell id="nw0UZW-xQefEUAk0dn4Y-40" value="" style="ellipse;whiteSpace=wrap;html=1;aspect=fixed;fillColor=none;connectable=0;allowArrows=0;" parent="1" vertex="1">
          <mxGeometry x="240" y="119" width="80" height="80" as="geometry" />
        </mxCell>
        <mxCell id="nw0UZW-xQefEUAk0dn4Y-41" value="" style="ellipse;whiteSpace=wrap;html=1;aspect=fixed;fillColor=none;connectable=0;allowArrows=0;" parent="1" vertex="1">
          <mxGeometry x="250" y="129" width="60" height="60" as="geometry" />
        </mxCell>
        <mxCell id="QgdDYN5rGUicbWpnFUVR-4" value="&lt;div style=&quot;&quot;&gt;&lt;span style=&quot;background-color: initial;&quot;&gt;can&lt;/span&gt;&lt;/div&gt;&lt;div style=&quot;&quot;&gt;&lt;span style=&quot;background-color: initial;&quot;&gt;height&lt;/span&gt;&lt;/div&gt;" style="text;html=1;align=right;verticalAlign=middle;whiteSpace=wrap;rounded=0;fontSize=10;fontColor=#007FFF;allowArrows=0;connectable=0;spacingLeft=2;spacingTop=2;spacingBottom=2;spacingRight=2;" parent="1" vertex="1">
          <mxGeometry x="40" y="120" width="50" height="40" as="geometry" />
        </mxCell>
        <mxCell id="QgdDYN5rGUicbWpnFUVR-6" value="&lt;div style=&quot;&quot;&gt;&lt;span style=&quot;background-color: initial;&quot;&gt;can size&lt;/span&gt;&lt;/div&gt;" style="text;html=1;align=center;verticalAlign=bottom;whiteSpace=wrap;rounded=0;fontSize=10;fontColor=#007FFF;allowArrows=0;connectable=0;spacingLeft=2;spacingTop=2;spacingBottom=2;spacingRight=2;" parent="1" vertex="1">
          <mxGeometry x="108" y="160" width="60" height="20" as="geometry" />
        </mxCell>
        <mxCell id="vKmyMk4U30r1ylPIldxQ-1" value="" style="endArrow=classicThin;html=1;rounded=0;strokeWidth=0.2;strokeColor=#007FFF;endFill=1;endSize=4;startArrow=classicThin;startFill=1;startSize=4;" parent="1" edge="1">
          <mxGeometry width="50" height="50" relative="1" as="geometry">
            <mxPoint x="190" y="110" as="sourcePoint" />
            <mxPoint x="190" y="78" as="targetPoint" />
          </mxGeometry>
        </mxCell>
        <mxCell id="vKmyMk4U30r1ylPIldxQ-2" value="&lt;div style=&quot;&quot;&gt;&lt;span style=&quot;background-color: initial;&quot;&gt;neck&lt;/span&gt;&lt;/div&gt;&lt;div style=&quot;&quot;&gt;&lt;span style=&quot;background-color: initial;&quot;&gt;height&lt;/span&gt;&lt;/div&gt;" style="text;html=1;align=left;verticalAlign=middle;whiteSpace=wrap;rounded=0;fontSize=10;fontColor=#007FFF;allowArrows=0;connectable=0;spacingLeft=2;spacingTop=2;spacingBottom=2;spacingRight=2;" parent="1" vertex="1">
          <mxGeometry x="190" y="80" width="50" height="29.64" as="geometry" />
        </mxCell>
        <mxCell id="vKmyMk4U30r1ylPIldxQ-6" value="&lt;div style=&quot;&quot;&gt;&lt;span style=&quot;background-color: initial;&quot;&gt;neck size&lt;/span&gt;&lt;/div&gt;" style="text;html=1;align=center;verticalAlign=bottom;whiteSpace=wrap;rounded=0;fontSize=10;fontColor=#007FFF;allowArrows=0;connectable=0;spacingLeft=2;spacingTop=2;spacingBottom=2;spacingRight=2;" parent="1" vertex="1">
          <mxGeometry x="110" y="49.64" width="60" height="20" as="geometry" />
        </mxCell>
        <mxCell id="-t4u0__WDk2onbK1k2eb-38" value="" style="group" parent="1" vertex="1" connectable="0">
          <mxGeometry x="400" y="280.15" width="40" height="80" as="geometry" />
        </mxCell>
        <mxCell id="-t4u0__WDk2onbK1k2eb-39" value="" style="ellipse;whiteSpace=wrap;html=1;aspect=fixed;connectable=0;fillColor=#007FFF;strokeColor=none;" parent="-t4u0__WDk2onbK1k2eb-38" vertex="1">
          <mxGeometry x="15.294117647058822" y="55.11764705882352" width="9.411764705882351" height="9.411764705882351" as="geometry" />
        </mxCell>
        <mxCell id="-t4u0__WDk2onbK1k2eb-40" value="" style="rounded=1;whiteSpace=wrap;html=1;fillColor=none;strokeWidth=0.2;arcSize=41;" parent="-t4u0__WDk2onbK1k2eb-38" vertex="1">
          <mxGeometry width="40" height="80" as="geometry" />
        </mxCell>
        <mxCell id="-t4u0__WDk2onbK1k2eb-41" value="" style="ellipse;whiteSpace=wrap;html=1;fillColor=none;strokeColor=default;strokeWidth=0.1;" parent="-t4u0__WDk2onbK1k2eb-38" vertex="1">
          <mxGeometry x="3.9999999999999734" y="43.999999999999986" width="31.999999999999993" height="32" as="geometry" />
        </mxCell>
        <mxCell id="-t4u0__WDk2onbK1k2eb-42" value="" style="ellipse;whiteSpace=wrap;html=1;fillColor=none;strokeColor=default;strokeWidth=0.1;" parent="-t4u0__WDk2onbK1k2eb-38" vertex="1">
          <mxGeometry x="3.9999999999999734" y="4.000000000000006" width="31.999999999999993" height="32" as="geometry" />
        </mxCell>
        <mxCell id="-t4u0__WDk2onbK1k2eb-47" value="&lt;div style=&quot;&quot;&gt;&lt;span style=&quot;background-color: initial;&quot;&gt;tP&lt;/span&gt;&lt;/div&gt;" style="text;html=1;align=left;verticalAlign=middle;whiteSpace=wrap;rounded=0;fontSize=10;fontColor=#007FFF;allowArrows=0;connectable=0;spacingLeft=2;spacingTop=2;spacingBottom=2;spacingRight=2;" parent="1" vertex="1">
          <mxGeometry x="414" y="268" width="20" height="14.5" as="geometry" />
        </mxCell>
        <mxCell id="-t4u0__WDk2onbK1k2eb-67" value="" style="endArrow=none;html=1;rounded=0;" parent="1" edge="1">
          <mxGeometry width="50" height="50" relative="1" as="geometry">
            <mxPoint x="120" y="220" as="sourcePoint" />
            <mxPoint x="160" y="220" as="targetPoint" />
            <Array as="points">
              <mxPoint x="115" y="220" />
              <mxPoint x="115" y="215" />
              <mxPoint x="100" y="210" />
              <mxPoint x="100" y="110" />
              <mxPoint x="110" y="85" />
              <mxPoint x="110" y="80" />
              <mxPoint x="115" y="80" />
              <mxPoint x="115" y="90" />
              <mxPoint x="165" y="90" />
              <mxPoint x="165" y="80" />
              <mxPoint x="170" y="80" />
              <mxPoint x="170" y="85" />
              <mxPoint x="180" y="110" />
              <mxPoint x="180" y="210" />
              <mxPoint x="165" y="215" />
              <mxPoint x="165" y="220" />
            </Array>
          </mxGeometry>
        </mxCell>
        <mxCell id="-t4u0__WDk2onbK1k2eb-68" value="" style="endArrow=none;html=1;rounded=0;curved=1;" parent="1" edge="1">
          <mxGeometry width="50" height="50" relative="1" as="geometry">
            <mxPoint x="160" y="220" as="sourcePoint" />
            <mxPoint x="120" y="220" as="targetPoint" />
            <Array as="points">
              <mxPoint x="155" y="205" />
              <mxPoint x="125" y="205" />
            </Array>
          </mxGeometry>
        </mxCell>
        <mxCell id="-t4u0__WDk2onbK1k2eb-69" value="" style="endArrow=classicThin;html=1;rounded=0;strokeWidth=0.5;strokeColor=#007FFF;endFill=1;endSize=4;startArrow=classicThin;startFill=1;startSize=4;" parent="1" edge="1">
          <mxGeometry width="50" height="50" relative="1" as="geometry">
            <mxPoint x="110" y="70" as="sourcePoint" />
            <mxPoint x="170" y="70" as="targetPoint" />
          </mxGeometry>
        </mxCell>
        <mxCell id="-t4u0__WDk2onbK1k2eb-70" value="" style="endArrow=classicThin;html=1;rounded=0;strokeWidth=0.5;strokeColor=#007FFF;endFill=1;endSize=4;startArrow=classicThin;startFill=1;startSize=4;" parent="1" edge="1">
          <mxGeometry width="50" height="50" relative="1" as="geometry">
            <mxPoint x="90" y="80" as="sourcePoint" />
            <mxPoint x="90" y="220" as="targetPoint" />
          </mxGeometry>
        </mxCell>
        <mxCell id="-t4u0__WDk2onbK1k2eb-71" value="" style="endArrow=classicThin;html=1;rounded=0;strokeWidth=0.5;strokeColor=#007FFF;endFill=1;endSize=4;startArrow=classicThin;startFill=1;startSize=4;" parent="1" edge="1">
          <mxGeometry width="50" height="50" relative="1" as="geometry">
            <mxPoint x="100" y="160" as="sourcePoint" />
            <mxPoint x="180" y="160" as="targetPoint" />
          </mxGeometry>
        </mxCell>
        <mxCell id="-t4u0__WDk2onbK1k2eb-72" value="" style="whiteSpace=wrap;html=1;connectable=0;allowArrows=0;strokeColor=#007FFF;fillColor=none;shape=ellipse;perimeter=ellipsePerimeter;aspect=fixed;" parent="1" vertex="1">
          <mxGeometry x="137" y="217" width="6" height="6" as="geometry" />
        </mxCell>
        <mxCell id="-t4u0__WDk2onbK1k2eb-73" value="" style="endArrow=none;html=1;rounded=0;strokeWidth=0.5;dashed=1;strokeColor=#000000;" parent="1" edge="1">
          <mxGeometry width="50" height="50" relative="1" as="geometry">
            <mxPoint x="180" y="210" as="sourcePoint" />
            <mxPoint x="100" y="210" as="targetPoint" />
            <Array as="points">
              <mxPoint x="170" y="220" />
              <mxPoint x="110" y="220" />
            </Array>
          </mxGeometry>
        </mxCell>
        <mxCell id="0A4ECjPYEgnLE-gKC64b-1" value="" style="endArrow=none;html=1;rounded=0;strokeWidth=0.5;dashed=1;strokeColor=#000000;" edge="1" parent="1">
          <mxGeometry width="50" height="50" relative="1" as="geometry">
            <mxPoint x="180" y="110" as="sourcePoint" />
            <mxPoint x="100" y="110" as="targetPoint" />
            <Array as="points">
              <mxPoint x="170" y="80" />
              <mxPoint x="110" y="80" />
            </Array>
          </mxGeometry>
        </mxCell>
        <mxCell id="0A4ECjPYEgnLE-gKC64b-2" value="" style="ellipse;whiteSpace=wrap;html=1;aspect=fixed;fillColor=none;connectable=0;allowArrows=0;" vertex="1" parent="1">
          <mxGeometry x="255" y="134" width="50" height="50" as="geometry" />
        </mxCell>
        <mxCell id="0A4ECjPYEgnLE-gKC64b-4" value="" style="endArrow=none;html=1;rounded=0;" edge="1" parent="1">
          <mxGeometry width="50" height="50" relative="1" as="geometry">
            <mxPoint x="170" y="280" as="sourcePoint" />
            <mxPoint x="140" y="420" as="targetPoint" />
            <Array as="points">
              <mxPoint x="180" y="310" />
              <mxPoint x="180" y="410" />
              <mxPoint x="170" y="420" />
            </Array>
          </mxGeometry>
        </mxCell>
        <mxCell id="0A4ECjPYEgnLE-gKC64b-7" value="" style="endArrow=none;html=1;rounded=0;" edge="1" parent="1">
          <mxGeometry width="50" height="50" relative="1" as="geometry">
            <mxPoint x="260" y="420.36" as="sourcePoint" />
            <mxPoint x="300" y="420.36" as="targetPoint" />
            <Array as="points">
              <mxPoint x="255" y="420.36" />
              <mxPoint x="255" y="415.36" />
              <mxPoint x="240" y="410.36" />
              <mxPoint x="240" y="310.36" />
              <mxPoint x="250" y="285.36" />
              <mxPoint x="250" y="280.36" />
              <mxPoint x="255" y="280.36" />
              <mxPoint x="255" y="290.36" />
              <mxPoint x="305" y="290.36" />
              <mxPoint x="305" y="280.36" />
              <mxPoint x="310" y="280.36" />
              <mxPoint x="310" y="285.36" />
              <mxPoint x="320" y="310.36" />
              <mxPoint x="320" y="410.36" />
              <mxPoint x="305" y="415.36" />
              <mxPoint x="305" y="420.36" />
            </Array>
          </mxGeometry>
        </mxCell>
        <mxCell id="0A4ECjPYEgnLE-gKC64b-8" value="" style="endArrow=none;html=1;rounded=0;curved=1;" edge="1" parent="1">
          <mxGeometry width="50" height="50" relative="1" as="geometry">
            <mxPoint x="300" y="420.36" as="sourcePoint" />
            <mxPoint x="260" y="420.36" as="targetPoint" />
            <Array as="points">
              <mxPoint x="295" y="405.36" />
              <mxPoint x="265" y="405.36" />
            </Array>
          </mxGeometry>
        </mxCell>
        <mxCell id="0A4ECjPYEgnLE-gKC64b-9" value="&lt;div style=&quot;font-size: 6px;&quot;&gt;nS&lt;/div&gt;" style="text;html=1;align=center;verticalAlign=middle;whiteSpace=wrap;rounded=0;fontSize=6;fontColor=#007FFF;allowArrows=0;connectable=0;spacingLeft=2;spacingTop=2;spacingBottom=2;spacingRight=2;" vertex="1" parent="1">
          <mxGeometry x="140" y="430.36" width="30" height="10" as="geometry" />
        </mxCell>
        <mxCell id="0A4ECjPYEgnLE-gKC64b-10" value="" style="endArrow=classicThin;html=1;rounded=0;strokeWidth=0.1;strokeColor=#007FFF;startSize=2;endSize=2;endFill=1;startArrow=classicThin;startFill=1;dashed=1;" edge="1" parent="1">
          <mxGeometry width="50" height="50" relative="1" as="geometry">
            <mxPoint x="140" y="430" as="sourcePoint" />
            <mxPoint x="170" y="430" as="targetPoint" />
          </mxGeometry>
        </mxCell>
        <mxCell id="0A4ECjPYEgnLE-gKC64b-11" value="&lt;div style=&quot;font-size: 6px;&quot;&gt;nS&lt;/div&gt;" style="text;html=1;align=center;verticalAlign=middle;whiteSpace=wrap;rounded=0;fontSize=6;fontColor=#007FFF;allowArrows=0;connectable=0;spacingLeft=2;spacingTop=2;spacingBottom=2;spacingRight=2;" vertex="1" parent="1">
          <mxGeometry x="140" y="260" width="30" height="10" as="geometry" />
        </mxCell>
        <mxCell id="0A4ECjPYEgnLE-gKC64b-12" value="" style="endArrow=classicThin;html=1;rounded=0;strokeWidth=0.1;strokeColor=#007FFF;startSize=2;endSize=2;endFill=1;startArrow=classicThin;startFill=1;dashed=1;" edge="1" parent="1">
          <mxGeometry width="50" height="50" relative="1" as="geometry">
            <mxPoint x="140" y="270" as="sourcePoint" />
            <mxPoint x="170" y="270" as="targetPoint" />
          </mxGeometry>
        </mxCell>
        <mxCell id="0A4ECjPYEgnLE-gKC64b-13" value="0" style="aspect=fixed;rotation=0;connectable=1;allowArrows=0;fillColor=none;strokeColor=#FF0000;strokeWidth=0.1;fontSize=6;spacing=0;spacingBottom=0;rounded=0;whiteSpace=wrap;html=1;shape=ellipse;perimeter=ellipsePerimeter;fontColor=#FF0000;dashed=1;" vertex="1" parent="1">
          <mxGeometry x="135" y="440" width="10" height="10" as="geometry" />
        </mxCell>
        <mxCell id="0A4ECjPYEgnLE-gKC64b-14" value="" style="endArrow=oval;html=1;rounded=0;strokeWidth=0.1;strokeColor=#FF0000;startSize=3;endSize=3;exitX=0.5;exitY=0;exitDx=0;exitDy=0;endFill=1;dashed=1;" edge="1" parent="1" source="0A4ECjPYEgnLE-gKC64b-13">
          <mxGeometry width="50" height="50" relative="1" as="geometry">
            <mxPoint x="153.25" y="430.36" as="sourcePoint" />
            <mxPoint x="140" y="420" as="targetPoint" />
          </mxGeometry>
        </mxCell>
        <mxCell id="0A4ECjPYEgnLE-gKC64b-15" value="2" style="aspect=fixed;rotation=0;connectable=1;allowArrows=0;fillColor=none;strokeColor=#FF0000;strokeWidth=0.1;fontSize=6;spacing=0;spacingBottom=0;rounded=0;whiteSpace=wrap;html=1;shape=ellipse;perimeter=ellipsePerimeter;fontColor=#FF0000;dashed=1;" vertex="1" parent="1">
          <mxGeometry x="165" y="440" width="10" height="10" as="geometry" />
        </mxCell>
        <mxCell id="0A4ECjPYEgnLE-gKC64b-16" value="" style="endArrow=oval;html=1;rounded=0;strokeWidth=0.1;strokeColor=#FF0000;startSize=3;endSize=3;exitX=0.5;exitY=0;exitDx=0;exitDy=0;endFill=1;dashed=1;" edge="1" parent="1" source="0A4ECjPYEgnLE-gKC64b-15">
          <mxGeometry width="50" height="50" relative="1" as="geometry">
            <mxPoint x="188" y="430" as="sourcePoint" />
            <mxPoint x="170" y="420" as="targetPoint" />
          </mxGeometry>
        </mxCell>
        <mxCell id="0A4ECjPYEgnLE-gKC64b-17" value="" style="endArrow=classicThin;html=1;rounded=0;strokeWidth=0.1;strokeColor=#007FFF;startSize=2;endSize=2;endFill=1;startArrow=classicThin;startFill=1;dashed=1;" edge="1" parent="1">
          <mxGeometry width="50" height="50" relative="1" as="geometry">
            <mxPoint x="140" y="350" as="sourcePoint" />
            <mxPoint x="180" y="350" as="targetPoint" />
          </mxGeometry>
        </mxCell>
        <mxCell id="0A4ECjPYEgnLE-gKC64b-18" value="&lt;div style=&quot;font-size: 6px;&quot;&gt;cS&lt;/div&gt;" style="text;html=1;align=center;verticalAlign=middle;whiteSpace=wrap;rounded=0;fontSize=6;fontColor=#007FFF;allowArrows=0;connectable=0;spacingLeft=2;spacingTop=2;spacingBottom=2;spacingRight=2;" vertex="1" parent="1">
          <mxGeometry x="140" y="350.36" width="40" height="10" as="geometry" />
        </mxCell>
        <mxCell id="0A4ECjPYEgnLE-gKC64b-19" value="3" style="aspect=fixed;rotation=0;connectable=1;allowArrows=0;fillColor=none;strokeColor=#FF0000;strokeWidth=0.1;fontSize=6;spacing=0;spacingBottom=0;rounded=0;whiteSpace=wrap;html=1;shape=ellipse;perimeter=ellipsePerimeter;fontColor=#FF0000;dashed=1;" vertex="1" parent="1">
          <mxGeometry x="200" y="405" width="10" height="10" as="geometry" />
        </mxCell>
        <mxCell id="0A4ECjPYEgnLE-gKC64b-20" value="" style="endArrow=oval;html=1;rounded=0;strokeWidth=0.1;strokeColor=#FF0000;startSize=3;endSize=3;exitX=0;exitY=0.5;exitDx=0;exitDy=0;endFill=1;dashed=1;" edge="1" source="0A4ECjPYEgnLE-gKC64b-19" parent="1">
          <mxGeometry width="50" height="50" relative="1" as="geometry">
            <mxPoint x="197" y="420.36" as="sourcePoint" />
            <mxPoint x="180" y="410" as="targetPoint" />
          </mxGeometry>
        </mxCell>
        <mxCell id="0A4ECjPYEgnLE-gKC64b-21" value="" style="endArrow=oval;html=1;rounded=0;strokeWidth=0.1;strokeColor=#FF0000;startSize=3;endSize=3;exitX=0;exitY=0.5;exitDx=0;exitDy=0;endFill=1;dashed=1;" edge="1" source="0A4ECjPYEgnLE-gKC64b-22" parent="1">
          <mxGeometry width="50" height="50" relative="1" as="geometry">
            <mxPoint x="197" y="320" as="sourcePoint" />
            <mxPoint x="180" y="310" as="targetPoint" />
          </mxGeometry>
        </mxCell>
        <mxCell id="0A4ECjPYEgnLE-gKC64b-22" value="4" style="aspect=fixed;rotation=0;connectable=1;allowArrows=0;fillColor=none;strokeColor=#FF0000;strokeWidth=0.1;fontSize=6;spacing=0;spacingBottom=0;rounded=0;whiteSpace=wrap;html=1;shape=ellipse;perimeter=ellipsePerimeter;fontColor=#FF0000;dashed=1;" vertex="1" parent="1">
          <mxGeometry x="190" y="305" width="10" height="10" as="geometry" />
        </mxCell>
        <mxCell id="0A4ECjPYEgnLE-gKC64b-23" value="" style="endArrow=oval;html=1;rounded=0;strokeWidth=0.1;strokeColor=#FF0000;startSize=3;endSize=3;exitX=0.5;exitY=1;exitDx=0;exitDy=0;endFill=1;dashed=1;" edge="1" source="0A4ECjPYEgnLE-gKC64b-24" parent="1">
          <mxGeometry width="50" height="50" relative="1" as="geometry">
            <mxPoint x="188" y="285" as="sourcePoint" />
            <mxPoint x="170" y="280" as="targetPoint" />
          </mxGeometry>
        </mxCell>
        <mxCell id="0A4ECjPYEgnLE-gKC64b-24" value="5" style="aspect=fixed;rotation=0;connectable=1;allowArrows=0;fillColor=none;strokeColor=#FF0000;strokeWidth=0.1;fontSize=6;spacing=0;spacingBottom=0;rounded=0;whiteSpace=wrap;html=1;shape=ellipse;perimeter=ellipsePerimeter;fontColor=#FF0000;dashed=1;" vertex="1" parent="1">
          <mxGeometry x="165" y="250" width="10" height="10" as="geometry" />
        </mxCell>
        <mxCell id="0A4ECjPYEgnLE-gKC64b-27" value="" style="endArrow=oval;html=1;rounded=0;strokeWidth=0.1;strokeColor=#FF0000;startSize=3;endSize=3;exitX=0.5;exitY=0;exitDx=0;exitDy=0;endFill=1;dashed=1;" edge="1" source="0A4ECjPYEgnLE-gKC64b-28" parent="1">
          <mxGeometry width="50" height="50" relative="1" as="geometry">
            <mxPoint x="178" y="430" as="sourcePoint" />
            <mxPoint x="160" y="420" as="targetPoint" />
          </mxGeometry>
        </mxCell>
        <mxCell id="0A4ECjPYEgnLE-gKC64b-28" value="1" style="aspect=fixed;rotation=0;connectable=1;allowArrows=0;fillColor=none;strokeColor=#FF0000;strokeWidth=0.1;fontSize=6;spacing=0;spacingBottom=0;rounded=0;whiteSpace=wrap;html=1;shape=ellipse;perimeter=ellipsePerimeter;fontColor=#FF0000;dashed=1;" vertex="1" parent="1">
          <mxGeometry x="155" y="440" width="10" height="10" as="geometry" />
        </mxCell>
        <mxCell id="0A4ECjPYEgnLE-gKC64b-32" value="uv = 0.0" style="rotation=0;connectable=1;allowArrows=0;fillColor=#FF0000;strokeColor=#FF0000;strokeWidth=0.1;fontSize=6;spacing=0;spacingBottom=0;rounded=1;whiteSpace=wrap;html=1;shape=label;fontColor=#FFFFFF;dashed=1;labelBackgroundColor=none;" vertex="1" parent="1">
          <mxGeometry x="125" y="229" width="30" height="10" as="geometry" />
        </mxCell>
        <mxCell id="0A4ECjPYEgnLE-gKC64b-33" value="uv = 0.15" style="rotation=0;connectable=1;allowArrows=0;fillColor=#FF0000;strokeColor=#FF0000;strokeWidth=0.1;fontSize=6;spacing=0;spacingBottom=0;rounded=1;whiteSpace=wrap;html=1;shape=label;fontColor=#FFFFFF;dashed=1;labelBackgroundColor=none;" vertex="1" parent="1">
          <mxGeometry x="190" y="219" width="30" height="10" as="geometry" />
        </mxCell>
        <mxCell id="0A4ECjPYEgnLE-gKC64b-34" value="uv = 1.0" style="rotation=0;connectable=1;allowArrows=0;fillColor=#FF0000;strokeColor=#FF0000;strokeWidth=0.1;fontSize=6;spacing=0;spacingBottom=0;rounded=1;whiteSpace=wrap;html=1;shape=label;fontColor=#FFFFFF;dashed=1;labelBackgroundColor=none;" vertex="1" parent="1">
          <mxGeometry x="171" y="64" width="30" height="10" as="geometry" />
        </mxCell>
        <mxCell id="0A4ECjPYEgnLE-gKC64b-36" value="uv = 0.85" style="rotation=0;connectable=1;allowArrows=0;fillColor=#FF0000;strokeColor=#FF0000;strokeWidth=0.1;fontSize=6;spacing=0;spacingBottom=0;rounded=1;whiteSpace=wrap;html=1;shape=label;fontColor=#FFFFFF;dashed=1;labelBackgroundColor=none;" vertex="1" parent="1">
          <mxGeometry x="190" y="120" width="30" height="10" as="geometry" />
        </mxCell>
        <mxCell id="0A4ECjPYEgnLE-gKC64b-37" value="" style="endArrow=oval;html=1;rounded=0;strokeWidth=0.1;strokeColor=#FF0000;startSize=3;endSize=3;exitX=0;exitY=0;exitDx=0;exitDy=0;endFill=1;dashed=1;" edge="1" parent="1" source="0A4ECjPYEgnLE-gKC64b-33">
          <mxGeometry width="50" height="50" relative="1" as="geometry">
            <mxPoint x="200" y="320" as="sourcePoint" />
            <mxPoint x="180" y="210" as="targetPoint" />
          </mxGeometry>
        </mxCell>
        <mxCell id="0A4ECjPYEgnLE-gKC64b-38" value="" style="endArrow=oval;html=1;rounded=0;strokeWidth=0.1;strokeColor=#FF0000;startSize=3;endSize=3;exitX=0.5;exitY=0;exitDx=0;exitDy=0;endFill=1;dashed=1;" edge="1" parent="1" source="0A4ECjPYEgnLE-gKC64b-32">
          <mxGeometry width="50" height="50" relative="1" as="geometry">
            <mxPoint x="185" y="238" as="sourcePoint" />
            <mxPoint x="140" y="220" as="targetPoint" />
          </mxGeometry>
        </mxCell>
        <mxCell id="0A4ECjPYEgnLE-gKC64b-39" value="" style="endArrow=oval;html=1;rounded=0;strokeWidth=0.1;strokeColor=#FF0000;startSize=3;endSize=3;exitX=0;exitY=0;exitDx=0;exitDy=0;endFill=1;dashed=1;" edge="1" parent="1" source="0A4ECjPYEgnLE-gKC64b-36">
          <mxGeometry width="50" height="50" relative="1" as="geometry">
            <mxPoint x="175" y="130" as="sourcePoint" />
            <mxPoint x="180" y="110" as="targetPoint" />
          </mxGeometry>
        </mxCell>
        <mxCell id="0A4ECjPYEgnLE-gKC64b-40" value="" style="endArrow=oval;html=1;rounded=0;strokeWidth=0.1;strokeColor=#FF0000;startSize=3;endSize=3;endFill=1;dashed=1;exitX=0;exitY=1;exitDx=0;exitDy=0;" edge="1" parent="1" source="0A4ECjPYEgnLE-gKC64b-34">
          <mxGeometry width="50" height="50" relative="1" as="geometry">
            <mxPoint x="167" y="75" as="sourcePoint" />
            <mxPoint x="170" y="80" as="targetPoint" />
          </mxGeometry>
        </mxCell>
        <mxCell id="0A4ECjPYEgnLE-gKC64b-41" value="" style="endArrow=oval;html=1;rounded=0;strokeWidth=0.1;strokeColor=#FF0000;startSize=3;endSize=3;endFill=1;dashed=1;" edge="1" parent="1">
          <mxGeometry width="50" height="50" relative="1" as="geometry">
            <mxPoint x="170" y="80" as="sourcePoint" />
            <mxPoint x="165" y="90" as="targetPoint" />
          </mxGeometry>
        </mxCell>
        <mxCell id="0A4ECjPYEgnLE-gKC64b-42" value="" style="endArrow=oval;html=1;rounded=0;strokeWidth=0.1;strokeColor=#FF0000;startSize=3;endSize=3;endFill=1;dashed=1;" edge="1" parent="1">
          <mxGeometry width="50" height="50" relative="1" as="geometry">
            <mxPoint x="140" y="220" as="sourcePoint" />
            <mxPoint x="140" y="205" as="targetPoint" />
          </mxGeometry>
        </mxCell>
        <mxCell id="0A4ECjPYEgnLE-gKC64b-43" value="" style="endArrow=classicThin;html=1;rounded=0;strokeWidth=0.1;strokeColor=#007FFF;startSize=2;endSize=2;endFill=1;startArrow=classicThin;startFill=1;dashed=1;" edge="1" parent="1">
          <mxGeometry width="50" height="50" relative="1" as="geometry">
            <mxPoint x="184" y="410" as="sourcePoint" />
            <mxPoint x="184" y="420" as="targetPoint" />
          </mxGeometry>
        </mxCell>
        <mxCell id="0A4ECjPYEgnLE-gKC64b-44" value="&lt;div style=&quot;font-size: 6px;&quot;&gt;nK&lt;/div&gt;" style="text;html=1;align=center;verticalAlign=middle;whiteSpace=wrap;rounded=0;fontSize=6;fontColor=#007FFF;allowArrows=0;connectable=0;spacingLeft=2;spacingTop=2;spacingBottom=2;spacingRight=2;" vertex="1" parent="1">
          <mxGeometry x="185" y="410" width="10" height="10" as="geometry" />
        </mxCell>
        <mxCell id="0A4ECjPYEgnLE-gKC64b-45" value="" style="endArrow=classicThin;html=1;rounded=0;strokeWidth=0.1;strokeColor=#007FFF;startSize=2;endSize=2;endFill=1;startArrow=classicThin;startFill=1;dashed=1;" edge="1" parent="1">
          <mxGeometry width="50" height="50" relative="1" as="geometry">
            <mxPoint x="185" y="280" as="sourcePoint" />
            <mxPoint x="185" y="310" as="targetPoint" />
          </mxGeometry>
        </mxCell>
        <mxCell id="0A4ECjPYEgnLE-gKC64b-46" value="&lt;div style=&quot;font-size: 6px;&quot;&gt;nH&lt;/div&gt;" style="text;html=1;align=center;verticalAlign=middle;whiteSpace=wrap;rounded=0;fontSize=6;fontColor=#007FFF;allowArrows=0;connectable=0;spacingLeft=2;spacingTop=2;spacingBottom=2;spacingRight=2;" vertex="1" parent="1">
          <mxGeometry x="185" y="290" width="10" height="10" as="geometry" />
        </mxCell>
        <mxCell id="0A4ECjPYEgnLE-gKC64b-47" value="" style="endArrow=classicThin;html=1;rounded=0;strokeWidth=0.1;strokeColor=#007FFF;startSize=2;endSize=2;endFill=1;startArrow=classicThin;startFill=1;dashed=1;" edge="1" parent="1">
          <mxGeometry width="50" height="50" relative="1" as="geometry">
            <mxPoint x="90" y="280" as="sourcePoint" />
            <mxPoint x="90" y="420" as="targetPoint" />
          </mxGeometry>
        </mxCell>
        <mxCell id="0A4ECjPYEgnLE-gKC64b-48" value="&lt;div style=&quot;font-size: 6px;&quot;&gt;cH&lt;/div&gt;" style="text;html=1;align=center;verticalAlign=middle;whiteSpace=wrap;rounded=0;fontSize=6;fontColor=#007FFF;allowArrows=0;connectable=0;spacingLeft=2;spacingTop=2;spacingBottom=2;spacingRight=2;" vertex="1" parent="1">
          <mxGeometry x="70" y="340.36" width="10" height="10" as="geometry" />
        </mxCell>
        <mxCell id="0A4ECjPYEgnLE-gKC64b-49" value="body" style="text;html=1;align=center;verticalAlign=middle;whiteSpace=wrap;rounded=0;fontStyle=1;connectable=0;allowArrows=0;" vertex="1" parent="1">
          <mxGeometry x="110" y="125" width="60" height="30" as="geometry" />
        </mxCell>
        <mxCell id="0A4ECjPYEgnLE-gKC64b-50" value="lid" style="text;html=1;align=center;verticalAlign=middle;whiteSpace=wrap;rounded=0;fontStyle=1;connectable=0;allowArrows=0;" vertex="1" parent="1">
          <mxGeometry x="106" y="100" width="32" height="20" as="geometry" />
        </mxCell>
        <mxCell id="0A4ECjPYEgnLE-gKC64b-51" value="tag" style="text;html=1;align=center;verticalAlign=middle;whiteSpace=wrap;rounded=0;fontStyle=1;connectable=0;allowArrows=0;" vertex="1" parent="1">
          <mxGeometry x="134" y="100" width="35" height="20" as="geometry" />
        </mxCell>
        <mxCell id="0A4ECjPYEgnLE-gKC64b-52" value="" style="rounded=0;whiteSpace=wrap;html=1;" vertex="1" parent="1">
          <mxGeometry x="136" y="87" width="26" height="3" as="geometry" />
        </mxCell>
        <mxCell id="0A4ECjPYEgnLE-gKC64b-53" value="" style="curved=1;endArrow=classic;html=1;rounded=0;strokeWidth=0.2;endSize=3;" edge="1" parent="1">
          <mxGeometry width="50" height="50" relative="1" as="geometry">
            <mxPoint x="120" y="103" as="sourcePoint" />
            <mxPoint x="120" y="91" as="targetPoint" />
            <Array as="points" />
          </mxGeometry>
        </mxCell>
        <mxCell id="0A4ECjPYEgnLE-gKC64b-54" value="" style="curved=1;endArrow=classic;html=1;rounded=0;strokeWidth=0.2;endSize=3;" edge="1" parent="1">
          <mxGeometry width="50" height="50" relative="1" as="geometry">
            <mxPoint x="150" y="106" as="sourcePoint" />
            <mxPoint x="150" y="91" as="targetPoint" />
            <Array as="points" />
          </mxGeometry>
        </mxCell>
        <mxCell id="0A4ECjPYEgnLE-gKC64b-55" value="" style="curved=1;endArrow=classic;html=1;rounded=0;strokeWidth=0.2;endSize=3;" edge="1" parent="1">
          <mxGeometry width="50" height="50" relative="1" as="geometry">
            <mxPoint x="265" y="116" as="sourcePoint" />
            <mxPoint x="265" y="160" as="targetPoint" />
            <Array as="points" />
          </mxGeometry>
        </mxCell>
        <mxCell id="0A4ECjPYEgnLE-gKC64b-56" value="" style="curved=1;endArrow=classic;html=1;rounded=0;strokeWidth=0.2;endSize=3;" edge="1" parent="1">
          <mxGeometry width="50" height="50" relative="1" as="geometry">
            <mxPoint x="327" y="153" as="sourcePoint" />
            <mxPoint x="286" y="153" as="targetPoint" />
            <Array as="points" />
          </mxGeometry>
        </mxCell>
        <mxCell id="0A4ECjPYEgnLE-gKC64b-57" value="tag" style="text;html=1;align=center;verticalAlign=middle;whiteSpace=wrap;rounded=0;fontStyle=1;connectable=0;allowArrows=0;" vertex="1" parent="1">
          <mxGeometry x="322" y="142" width="35" height="20" as="geometry" />
        </mxCell>
        <mxCell id="0A4ECjPYEgnLE-gKC64b-58" value="lid" style="text;html=1;align=center;verticalAlign=middle;whiteSpace=wrap;rounded=0;fontStyle=1;connectable=0;allowArrows=0;" vertex="1" parent="1">
          <mxGeometry x="250" y="99" width="32" height="20" as="geometry" />
        </mxCell>
        <mxCell id="0A4ECjPYEgnLE-gKC64b-59" value="" style="group;aspect=fixed;" vertex="1" connectable="0" parent="1">
          <mxGeometry x="272" y="136.5" width="16" height="32" as="geometry" />
        </mxCell>
        <mxCell id="QgdDYN5rGUicbWpnFUVR-16" value="" style="ellipse;whiteSpace=wrap;html=1;aspect=fixed;connectable=0;fillColor=#007FFF;strokeColor=none;" parent="0A4ECjPYEgnLE-gKC64b-59" vertex="1">
          <mxGeometry x="6.117647058823529" y="21.647058823529413" width="3.7647058823529407" height="3.7647058823529407" as="geometry" />
        </mxCell>
        <mxCell id="_yC1xBLdqxrplw88gGCU-1" value="" style="rounded=1;whiteSpace=wrap;html=1;fillColor=none;strokeWidth=0.2;arcSize=41;" parent="0A4ECjPYEgnLE-gKC64b-59" vertex="1">
          <mxGeometry width="16" height="32" as="geometry" />
        </mxCell>
        <mxCell id="_yC1xBLdqxrplw88gGCU-2" value="" style="ellipse;whiteSpace=wrap;html=1;fillColor=none;strokeColor=default;strokeWidth=0.1;" parent="0A4ECjPYEgnLE-gKC64b-59" vertex="1">
          <mxGeometry x="1.5999999999999894" y="16.799999999999997" width="12.799999999999997" height="12.799999999999999" as="geometry" />
        </mxCell>
        <mxCell id="_yC1xBLdqxrplw88gGCU-3" value="" style="ellipse;whiteSpace=wrap;html=1;fillColor=none;strokeColor=default;strokeWidth=0.1;" parent="0A4ECjPYEgnLE-gKC64b-59" vertex="1">
          <mxGeometry x="1.5999999999999894" y="1.5999999999999894" width="12.799999999999997" height="12.799999999999999" as="geometry" />
        </mxCell>
        <mxCell id="0A4ECjPYEgnLE-gKC64b-60" value="0" style="aspect=fixed;rotation=0;connectable=1;allowArrows=0;fillColor=none;strokeColor=#FF0000;strokeWidth=0.1;fontSize=6;spacing=0;spacingBottom=0;rounded=0;whiteSpace=wrap;html=1;shape=ellipse;perimeter=ellipsePerimeter;fontColor=#FF0000;dashed=1;" vertex="1" parent="1">
          <mxGeometry x="275" y="450" width="10" height="10" as="geometry" />
        </mxCell>
        <mxCell id="0A4ECjPYEgnLE-gKC64b-61" value="" style="endArrow=oval;html=1;rounded=0;strokeWidth=0.1;strokeColor=#FF0000;startSize=3;endSize=3;exitX=0.5;exitY=0;exitDx=0;exitDy=0;endFill=1;dashed=1;" edge="1" parent="1" source="0A4ECjPYEgnLE-gKC64b-60">
          <mxGeometry width="50" height="50" relative="1" as="geometry">
            <mxPoint x="293.25" y="430.36" as="sourcePoint" />
            <mxPoint x="280" y="405" as="targetPoint" />
          </mxGeometry>
        </mxCell>
        <mxCell id="0A4ECjPYEgnLE-gKC64b-62" value="3" style="aspect=fixed;rotation=0;connectable=1;allowArrows=0;fillColor=none;strokeColor=#FF0000;strokeWidth=0.1;fontSize=6;spacing=0;spacingBottom=0;rounded=0;whiteSpace=wrap;html=1;shape=ellipse;perimeter=ellipsePerimeter;fontColor=#FF0000;dashed=1;" vertex="1" parent="1">
          <mxGeometry x="310" y="440" width="10" height="10" as="geometry" />
        </mxCell>
        <mxCell id="0A4ECjPYEgnLE-gKC64b-63" value="" style="endArrow=oval;html=1;rounded=0;strokeWidth=0.1;strokeColor=#FF0000;startSize=3;endSize=3;exitX=0.255;exitY=0.07;exitDx=0;exitDy=0;endFill=1;dashed=1;exitPerimeter=0;" edge="1" parent="1" source="0A4ECjPYEgnLE-gKC64b-62">
          <mxGeometry width="50" height="50" relative="1" as="geometry">
            <mxPoint x="328" y="430" as="sourcePoint" />
            <mxPoint x="305" y="420" as="targetPoint" />
          </mxGeometry>
        </mxCell>
        <mxCell id="0A4ECjPYEgnLE-gKC64b-64" value="5" style="aspect=fixed;rotation=0;connectable=1;allowArrows=0;fillColor=none;strokeColor=#FF0000;strokeWidth=0.1;fontSize=6;spacing=0;spacingBottom=0;rounded=0;whiteSpace=wrap;html=1;shape=ellipse;perimeter=ellipsePerimeter;fontColor=#FF0000;dashed=1;" vertex="1" parent="1">
          <mxGeometry x="341" y="405" width="10" height="10" as="geometry" />
        </mxCell>
        <mxCell id="0A4ECjPYEgnLE-gKC64b-65" value="" style="endArrow=oval;html=1;rounded=0;strokeWidth=0.1;strokeColor=#FF0000;startSize=3;endSize=3;exitX=0;exitY=0.5;exitDx=0;exitDy=0;endFill=1;dashed=1;" edge="1" parent="1" source="0A4ECjPYEgnLE-gKC64b-64">
          <mxGeometry width="50" height="50" relative="1" as="geometry">
            <mxPoint x="337" y="420.36" as="sourcePoint" />
            <mxPoint x="320" y="410" as="targetPoint" />
          </mxGeometry>
        </mxCell>
        <mxCell id="0A4ECjPYEgnLE-gKC64b-66" value="" style="endArrow=oval;html=1;rounded=0;strokeWidth=0.1;strokeColor=#FF0000;startSize=3;endSize=3;exitX=0;exitY=0.5;exitDx=0;exitDy=0;endFill=1;dashed=1;" edge="1" parent="1" source="0A4ECjPYEgnLE-gKC64b-67">
          <mxGeometry width="50" height="50" relative="1" as="geometry">
            <mxPoint x="337" y="320" as="sourcePoint" />
            <mxPoint x="320" y="310" as="targetPoint" />
          </mxGeometry>
        </mxCell>
        <mxCell id="0A4ECjPYEgnLE-gKC64b-67" value="6" style="aspect=fixed;rotation=0;connectable=1;allowArrows=0;fillColor=none;strokeColor=#FF0000;strokeWidth=0.1;fontSize=6;spacing=0;spacingBottom=0;rounded=0;whiteSpace=wrap;html=1;shape=ellipse;perimeter=ellipsePerimeter;fontColor=#FF0000;dashed=1;" vertex="1" parent="1">
          <mxGeometry x="330" y="305" width="10" height="10" as="geometry" />
        </mxCell>
        <mxCell id="0A4ECjPYEgnLE-gKC64b-68" value="" style="endArrow=oval;html=1;rounded=0;strokeWidth=0.1;strokeColor=#FF0000;startSize=3;endSize=3;exitX=0;exitY=1;exitDx=0;exitDy=0;endFill=1;dashed=1;" edge="1" parent="1" source="0A4ECjPYEgnLE-gKC64b-69">
          <mxGeometry width="50" height="50" relative="1" as="geometry">
            <mxPoint x="328" y="285" as="sourcePoint" />
            <mxPoint x="310" y="280" as="targetPoint" />
          </mxGeometry>
        </mxCell>
        <mxCell id="0A4ECjPYEgnLE-gKC64b-69" value="8" style="aspect=fixed;rotation=0;connectable=1;allowArrows=0;fillColor=none;strokeColor=#FF0000;strokeWidth=0.1;fontSize=6;spacing=0;spacingBottom=0;rounded=0;whiteSpace=wrap;html=1;shape=ellipse;perimeter=ellipsePerimeter;fontColor=#FF0000;dashed=1;" vertex="1" parent="1">
          <mxGeometry x="326" y="264" width="10" height="10" as="geometry" />
        </mxCell>
        <mxCell id="0A4ECjPYEgnLE-gKC64b-70" value="" style="endArrow=oval;html=1;rounded=0;strokeWidth=0.1;strokeColor=#FF0000;startSize=3;endSize=3;exitX=0.5;exitY=0;exitDx=0;exitDy=0;endFill=1;dashed=1;" edge="1" parent="1" source="0A4ECjPYEgnLE-gKC64b-71">
          <mxGeometry width="50" height="50" relative="1" as="geometry">
            <mxPoint x="318" y="430" as="sourcePoint" />
            <mxPoint x="300" y="420" as="targetPoint" />
          </mxGeometry>
        </mxCell>
        <mxCell id="0A4ECjPYEgnLE-gKC64b-71" value="2" style="aspect=fixed;rotation=0;connectable=1;allowArrows=0;fillColor=none;strokeColor=#FF0000;strokeWidth=0.1;fontSize=6;spacing=0;spacingBottom=0;rounded=0;whiteSpace=wrap;html=1;shape=ellipse;perimeter=ellipsePerimeter;fontColor=#FF0000;dashed=1;" vertex="1" parent="1">
          <mxGeometry x="295" y="450" width="10" height="10" as="geometry" />
        </mxCell>
        <mxCell id="0A4ECjPYEgnLE-gKC64b-72" value="" style="endArrow=classicThin;html=1;rounded=0;strokeWidth=0.1;strokeColor=#007FFF;startSize=2;endSize=2;endFill=1;startArrow=classicThin;startFill=1;dashed=1;" edge="1" parent="1">
          <mxGeometry width="50" height="50" relative="1" as="geometry">
            <mxPoint x="279.90999999999997" y="405" as="sourcePoint" />
            <mxPoint x="280" y="420" as="targetPoint" />
          </mxGeometry>
        </mxCell>
        <mxCell id="0A4ECjPYEgnLE-gKC64b-73" value="&lt;div style=&quot;font-size: 6px;&quot;&gt;2nL&lt;/div&gt;" style="text;html=1;align=center;verticalAlign=middle;whiteSpace=wrap;rounded=0;fontSize=6;fontColor=#007FFF;allowArrows=0;connectable=0;spacingLeft=2;spacingTop=2;spacingBottom=2;spacingRight=2;" vertex="1" parent="1">
          <mxGeometry x="269" y="407" width="10" height="10" as="geometry" />
        </mxCell>
        <mxCell id="0A4ECjPYEgnLE-gKC64b-74" value="1" style="aspect=fixed;rotation=0;connectable=1;allowArrows=0;fillColor=none;strokeColor=#FF0000;strokeWidth=0.1;fontSize=6;spacing=0;spacingBottom=0;rounded=0;whiteSpace=wrap;html=1;shape=ellipse;perimeter=ellipsePerimeter;fontColor=#FF0000;dashed=1;" vertex="1" parent="1">
          <mxGeometry x="295" y="380.36" width="10" height="10" as="geometry" />
        </mxCell>
        <mxCell id="0A4ECjPYEgnLE-gKC64b-75" value="" style="endArrow=oval;html=1;rounded=0;strokeWidth=0.1;strokeColor=#FF0000;startSize=3;endSize=3;exitX=0.5;exitY=1;exitDx=0;exitDy=0;endFill=1;dashed=1;" edge="1" source="0A4ECjPYEgnLE-gKC64b-74" parent="1">
          <mxGeometry width="50" height="50" relative="1" as="geometry">
            <mxPoint x="318" y="370.36" as="sourcePoint" />
            <mxPoint x="300" y="405" as="targetPoint" />
          </mxGeometry>
        </mxCell>
        <mxCell id="0A4ECjPYEgnLE-gKC64b-76" value="" style="endArrow=classicThin;html=1;rounded=0;strokeWidth=0.1;strokeColor=#007FFF;startSize=2;endSize=2;endFill=1;startArrow=classicThin;startFill=1;dashed=1;" edge="1" parent="1">
          <mxGeometry width="50" height="50" relative="1" as="geometry">
            <mxPoint x="280" y="439.86" as="sourcePoint" />
            <mxPoint x="310" y="439.86" as="targetPoint" />
          </mxGeometry>
        </mxCell>
        <mxCell id="0A4ECjPYEgnLE-gKC64b-77" value="&lt;div style=&quot;font-size: 6px;&quot;&gt;nS&lt;/div&gt;" style="text;html=1;align=center;verticalAlign=middle;whiteSpace=wrap;rounded=0;fontSize=6;fontColor=#007FFF;allowArrows=0;connectable=0;spacingLeft=2;spacingTop=2;spacingBottom=2;spacingRight=2;" vertex="1" parent="1">
          <mxGeometry x="280" y="440" width="30" height="10" as="geometry" />
        </mxCell>
        <mxCell id="0A4ECjPYEgnLE-gKC64b-80" value="" style="endArrow=classicThin;html=1;rounded=0;strokeWidth=0.1;strokeColor=#007FFF;startSize=2;endSize=2;endFill=1;startArrow=classicThin;startFill=1;dashed=1;" edge="1" parent="1">
          <mxGeometry width="50" height="50" relative="1" as="geometry">
            <mxPoint x="300" y="430" as="sourcePoint" />
            <mxPoint x="305" y="430" as="targetPoint" />
          </mxGeometry>
        </mxCell>
        <mxCell id="0A4ECjPYEgnLE-gKC64b-81" value="" style="endArrow=classicThin;html=1;rounded=0;strokeWidth=0.1;strokeColor=#007FFF;startSize=2;endSize=2;endFill=1;startArrow=classicThin;startFill=1;dashed=1;" edge="1" parent="1">
          <mxGeometry width="50" height="50" relative="1" as="geometry">
            <mxPoint x="305" y="425" as="sourcePoint" />
            <mxPoint x="310" y="425" as="targetPoint" />
          </mxGeometry>
        </mxCell>
        <mxCell id="0A4ECjPYEgnLE-gKC64b-82" value="&lt;div style=&quot;font-size: 6px;&quot;&gt;nP&lt;/div&gt;" style="text;html=1;align=center;verticalAlign=middle;whiteSpace=wrap;rounded=0;fontSize=6;fontColor=#007FFF;allowArrows=0;connectable=0;spacingLeft=2;spacingTop=2;spacingBottom=2;spacingRight=2;" vertex="1" parent="1">
          <mxGeometry x="298" y="431" width="9" height="6.72" as="geometry" />
        </mxCell>
        <mxCell id="0A4ECjPYEgnLE-gKC64b-83" value="4" style="aspect=fixed;rotation=0;connectable=1;allowArrows=0;fillColor=none;strokeColor=#FF0000;strokeWidth=0.1;fontSize=6;spacing=0;spacingBottom=0;rounded=0;whiteSpace=wrap;html=1;shape=ellipse;perimeter=ellipsePerimeter;fontColor=#FF0000;dashed=1;" vertex="1" parent="1">
          <mxGeometry x="308" y="390.36" width="10" height="10" as="geometry" />
        </mxCell>
        <mxCell id="0A4ECjPYEgnLE-gKC64b-84" value="" style="endArrow=oval;html=1;rounded=0;strokeWidth=0.1;strokeColor=#FF0000;startSize=3;endSize=3;exitX=0.203;exitY=0.957;exitDx=0;exitDy=0;endFill=1;dashed=1;exitPerimeter=0;" edge="1" source="0A4ECjPYEgnLE-gKC64b-83" parent="1">
          <mxGeometry width="50" height="50" relative="1" as="geometry">
            <mxPoint x="338" y="425" as="sourcePoint" />
            <mxPoint x="305" y="415" as="targetPoint" />
          </mxGeometry>
        </mxCell>
        <mxCell id="0A4ECjPYEgnLE-gKC64b-85" value="&lt;div style=&quot;font-size: 6px;&quot;&gt;nP&lt;/div&gt;" style="text;html=1;align=center;verticalAlign=middle;whiteSpace=wrap;rounded=0;fontSize=6;fontColor=#007FFF;allowArrows=0;connectable=0;spacingLeft=2;spacingTop=2;spacingBottom=2;spacingRight=2;" vertex="1" parent="1">
          <mxGeometry x="308" y="424" width="9" height="6.72" as="geometry" />
        </mxCell>
        <mxCell id="0A4ECjPYEgnLE-gKC64b-86" value="" style="endArrow=classicThin;html=1;rounded=0;strokeWidth=0.1;strokeColor=#007FFF;startSize=2;endSize=2;endFill=1;startArrow=classicThin;startFill=1;dashed=1;" edge="1" parent="1">
          <mxGeometry width="50" height="50" relative="1" as="geometry">
            <mxPoint x="330" y="410" as="sourcePoint" />
            <mxPoint x="330" y="420" as="targetPoint" />
          </mxGeometry>
        </mxCell>
        <mxCell id="0A4ECjPYEgnLE-gKC64b-87" value="&lt;div style=&quot;font-size: 6px;&quot;&gt;nK&lt;/div&gt;" style="text;html=1;align=center;verticalAlign=middle;whiteSpace=wrap;rounded=0;fontSize=6;fontColor=#007FFF;allowArrows=0;connectable=0;spacingLeft=2;spacingTop=2;spacingBottom=2;spacingRight=2;" vertex="1" parent="1">
          <mxGeometry x="331" y="410" width="10" height="10" as="geometry" />
        </mxCell>
        <mxCell id="0A4ECjPYEgnLE-gKC64b-88" value="" style="endArrow=classicThin;html=1;rounded=0;strokeWidth=0.1;strokeColor=#007FFF;startSize=2;endSize=2;endFill=1;startArrow=classicThin;startFill=1;dashed=1;" edge="1" parent="1">
          <mxGeometry width="50" height="50" relative="1" as="geometry">
            <mxPoint x="310" y="415" as="sourcePoint" />
            <mxPoint x="310" y="420" as="targetPoint" />
          </mxGeometry>
        </mxCell>
        <mxCell id="0A4ECjPYEgnLE-gKC64b-89" value="&lt;div style=&quot;font-size: 6px;&quot;&gt;nK/2&lt;/div&gt;" style="text;html=1;align=center;verticalAlign=middle;whiteSpace=wrap;rounded=0;fontSize=6;fontColor=#007FFF;allowArrows=0;connectable=0;spacingLeft=2;spacingTop=2;spacingBottom=2;spacingRight=2;" vertex="1" parent="1">
          <mxGeometry x="310" y="412" width="16" height="10" as="geometry" />
        </mxCell>
        <mxCell id="0A4ECjPYEgnLE-gKC64b-90" value="" style="endArrow=classicThin;html=1;rounded=0;strokeWidth=0.1;strokeColor=#007FFF;startSize=2;endSize=2;endFill=1;startArrow=classicThin;startFill=1;dashed=1;" edge="1" parent="1">
          <mxGeometry width="50" height="50" relative="1" as="geometry">
            <mxPoint x="280" y="350" as="sourcePoint" />
            <mxPoint x="320" y="350" as="targetPoint" />
          </mxGeometry>
        </mxCell>
        <mxCell id="0A4ECjPYEgnLE-gKC64b-91" value="&lt;div style=&quot;font-size: 6px;&quot;&gt;cS&lt;/div&gt;" style="text;html=1;align=center;verticalAlign=middle;whiteSpace=wrap;rounded=0;fontSize=6;fontColor=#007FFF;allowArrows=0;connectable=0;spacingLeft=2;spacingTop=2;spacingBottom=2;spacingRight=2;" vertex="1" parent="1">
          <mxGeometry x="280" y="350.36" width="40" height="10" as="geometry" />
        </mxCell>
        <mxCell id="0A4ECjPYEgnLE-gKC64b-92" value="" style="endArrow=classicThin;html=1;rounded=0;strokeWidth=0.1;strokeColor=#007FFF;startSize=2;endSize=2;endFill=1;startArrow=classicThin;startFill=1;dashed=1;" edge="1" parent="1">
          <mxGeometry width="50" height="50" relative="1" as="geometry">
            <mxPoint x="326" y="280" as="sourcePoint" />
            <mxPoint x="326" y="310" as="targetPoint" />
          </mxGeometry>
        </mxCell>
        <mxCell id="0A4ECjPYEgnLE-gKC64b-93" value="&lt;div style=&quot;font-size: 6px;&quot;&gt;nH&lt;/div&gt;" style="text;html=1;align=center;verticalAlign=middle;whiteSpace=wrap;rounded=0;fontSize=6;fontColor=#007FFF;allowArrows=0;connectable=0;spacingLeft=2;spacingTop=2;spacingBottom=2;spacingRight=2;" vertex="1" parent="1">
          <mxGeometry x="326" y="290" width="10" height="10" as="geometry" />
        </mxCell>
        <mxCell id="0A4ECjPYEgnLE-gKC64b-94" value="" style="endArrow=oval;html=1;rounded=0;strokeWidth=0.1;strokeColor=#FF0000;startSize=3;endSize=3;exitX=0;exitY=0.5;exitDx=0;exitDy=0;endFill=1;dashed=1;" edge="1" source="0A4ECjPYEgnLE-gKC64b-95" parent="1">
          <mxGeometry width="50" height="50" relative="1" as="geometry">
            <mxPoint x="343" y="285" as="sourcePoint" />
            <mxPoint x="310" y="286" as="targetPoint" />
          </mxGeometry>
        </mxCell>
        <mxCell id="0A4ECjPYEgnLE-gKC64b-95" value="7" style="aspect=fixed;rotation=0;connectable=1;allowArrows=0;fillColor=none;strokeColor=#FF0000;strokeWidth=0.1;fontSize=6;spacing=0;spacingBottom=0;rounded=0;whiteSpace=wrap;html=1;shape=ellipse;perimeter=ellipsePerimeter;fontColor=#FF0000;dashed=1;" vertex="1" parent="1">
          <mxGeometry x="340" y="281" width="10" height="10" as="geometry" />
        </mxCell>
        <mxCell id="0A4ECjPYEgnLE-gKC64b-96" value="9" style="aspect=fixed;rotation=0;connectable=1;allowArrows=0;fillColor=none;strokeColor=#FF0000;strokeWidth=0.1;fontSize=6;spacing=0;spacingBottom=0;rounded=0;whiteSpace=wrap;html=1;shape=ellipse;perimeter=ellipsePerimeter;fontColor=#FF0000;dashed=1;" vertex="1" parent="1">
          <mxGeometry x="284" y="256" width="10" height="10" as="geometry" />
        </mxCell>
        <mxCell id="0A4ECjPYEgnLE-gKC64b-97" value="" style="endArrow=oval;html=1;rounded=0;strokeWidth=0.1;strokeColor=#FF0000;startSize=3;endSize=3;exitX=1;exitY=1;exitDx=0;exitDy=0;endFill=1;dashed=1;" edge="1" source="0A4ECjPYEgnLE-gKC64b-96" parent="1">
          <mxGeometry width="50" height="50" relative="1" as="geometry">
            <mxPoint x="315" y="285" as="sourcePoint" />
            <mxPoint x="305" y="280" as="targetPoint" />
          </mxGeometry>
        </mxCell>
        <mxCell id="0A4ECjPYEgnLE-gKC64b-98" value="10" style="aspect=fixed;rotation=0;connectable=1;allowArrows=0;fillColor=none;strokeColor=#FF0000;strokeWidth=0.1;fontSize=6;spacing=0;spacingBottom=0;rounded=0;whiteSpace=wrap;html=1;shape=ellipse;perimeter=ellipsePerimeter;fontColor=#FF0000;dashed=1;" vertex="1" parent="1">
          <mxGeometry x="300" y="305" width="10" height="10" as="geometry" />
        </mxCell>
        <mxCell id="0A4ECjPYEgnLE-gKC64b-99" value="" style="endArrow=oval;html=1;rounded=0;strokeWidth=0.1;strokeColor=#FF0000;startSize=3;endSize=3;endFill=1;dashed=1;exitX=0.5;exitY=0;exitDx=0;exitDy=0;" edge="1" source="0A4ECjPYEgnLE-gKC64b-98" parent="1">
          <mxGeometry width="50" height="50" relative="1" as="geometry">
            <mxPoint x="300" y="300" as="sourcePoint" />
            <mxPoint x="305" y="290" as="targetPoint" />
          </mxGeometry>
        </mxCell>
        <mxCell id="0A4ECjPYEgnLE-gKC64b-100" value="" style="endArrow=classicThin;html=1;rounded=0;strokeWidth=0.1;strokeColor=#007FFF;startSize=2;endSize=2;endFill=1;startArrow=classicThin;startFill=1;dashed=1;" edge="1" parent="1">
          <mxGeometry width="50" height="50" relative="1" as="geometry">
            <mxPoint x="280" y="270" as="sourcePoint" />
            <mxPoint x="310" y="270" as="targetPoint" />
          </mxGeometry>
        </mxCell>
        <mxCell id="0A4ECjPYEgnLE-gKC64b-101" value="&lt;div style=&quot;font-size: 6px;&quot;&gt;nS&lt;/div&gt;" style="text;html=1;align=center;verticalAlign=middle;whiteSpace=wrap;rounded=0;fontSize=6;fontColor=#007FFF;allowArrows=0;connectable=0;spacingLeft=2;spacingTop=2;spacingBottom=2;spacingRight=2;" vertex="1" parent="1">
          <mxGeometry x="286" y="260" width="30" height="10" as="geometry" />
        </mxCell>
        <mxCell id="0A4ECjPYEgnLE-gKC64b-102" value="" style="endArrow=classicThin;html=1;rounded=0;strokeWidth=0.1;strokeColor=#007FFF;startSize=2;endSize=2;endFill=1;startArrow=classicThin;startFill=1;dashed=1;" edge="1" parent="1">
          <mxGeometry width="50" height="50" relative="1" as="geometry">
            <mxPoint x="310" y="270" as="sourcePoint" />
            <mxPoint x="320" y="270" as="targetPoint" />
          </mxGeometry>
        </mxCell>
        <mxCell id="0A4ECjPYEgnLE-gKC64b-103" value="&lt;div style=&quot;font-size: 6px;&quot;&gt;2nP&lt;/div&gt;" style="text;html=1;align=center;verticalAlign=middle;whiteSpace=wrap;rounded=0;fontSize=6;fontColor=#007FFF;allowArrows=0;connectable=0;spacingLeft=2;spacingTop=2;spacingBottom=2;spacingRight=2;" vertex="1" parent="1">
          <mxGeometry x="308" y="262" width="18" height="6.72" as="geometry" />
        </mxCell>
        <mxCell id="0A4ECjPYEgnLE-gKC64b-104" value="" style="endArrow=classicThin;html=1;rounded=0;strokeWidth=0.1;strokeColor=#007FFF;startSize=2;endSize=2;endFill=1;startArrow=classicThin;startFill=1;dashed=1;" edge="1" parent="1">
          <mxGeometry width="50" height="50" relative="1" as="geometry">
            <mxPoint x="305" y="294.93" as="sourcePoint" />
            <mxPoint x="310" y="295" as="targetPoint" />
          </mxGeometry>
        </mxCell>
        <mxCell id="0A4ECjPYEgnLE-gKC64b-105" value="&lt;div style=&quot;font-size: 6px;&quot;&gt;nP&lt;/div&gt;" style="text;html=1;align=center;verticalAlign=middle;whiteSpace=wrap;rounded=0;fontSize=6;fontColor=#007FFF;allowArrows=0;connectable=0;spacingLeft=2;spacingTop=2;spacingBottom=2;spacingRight=2;" vertex="1" parent="1">
          <mxGeometry x="300" y="296" width="18" height="6.72" as="geometry" />
        </mxCell>
        <mxCell id="0A4ECjPYEgnLE-gKC64b-106" value="" style="endArrow=classicThin;html=1;rounded=0;strokeWidth=0.1;strokeColor=#007FFF;startSize=2;endSize=2;endFill=1;startArrow=classicThin;startFill=1;dashed=1;" edge="1" parent="1">
          <mxGeometry width="50" height="50" relative="1" as="geometry">
            <mxPoint x="295" y="280" as="sourcePoint" />
            <mxPoint x="295" y="290" as="targetPoint" />
          </mxGeometry>
        </mxCell>
        <mxCell id="0A4ECjPYEgnLE-gKC64b-107" value="&lt;div style=&quot;font-size: 6px;&quot;&gt;nL&lt;/div&gt;" style="text;html=1;align=center;verticalAlign=middle;whiteSpace=wrap;rounded=0;fontSize=6;fontColor=#007FFF;allowArrows=0;connectable=0;spacingLeft=2;spacingTop=2;spacingBottom=2;spacingRight=2;" vertex="1" parent="1">
          <mxGeometry x="285" y="280" width="10" height="10" as="geometry" />
        </mxCell>
        <mxCell id="0A4ECjPYEgnLE-gKC64b-108" value="" style="endArrow=classicThin;html=1;rounded=0;strokeWidth=0.1;strokeColor=#007FFF;startSize=2;endSize=2;endFill=1;startArrow=classicThin;startFill=1;dashed=1;" edge="1" parent="1">
          <mxGeometry width="50" height="50" relative="1" as="geometry">
            <mxPoint x="400" y="370" as="sourcePoint" />
            <mxPoint x="440" y="370" as="targetPoint" />
          </mxGeometry>
        </mxCell>
        <mxCell id="0A4ECjPYEgnLE-gKC64b-109" value="&lt;div style=&quot;font-size: 6px;&quot;&gt;tW&lt;/div&gt;" style="text;html=1;align=center;verticalAlign=middle;whiteSpace=wrap;rounded=0;fontSize=6;fontColor=#007FFF;allowArrows=0;connectable=0;spacingLeft=2;spacingTop=2;spacingBottom=2;spacingRight=2;" vertex="1" parent="1">
          <mxGeometry x="405" y="370.36" width="30" height="10" as="geometry" />
        </mxCell>
        <mxCell id="0A4ECjPYEgnLE-gKC64b-110" value="" style="endArrow=classicThin;html=1;rounded=0;strokeWidth=0.1;strokeColor=#007FFF;startSize=2;endSize=2;endFill=1;startArrow=classicThin;startFill=1;dashed=1;" edge="1" parent="1">
          <mxGeometry width="50" height="50" relative="1" as="geometry">
            <mxPoint x="450" y="360" as="sourcePoint" />
            <mxPoint x="450" y="280" as="targetPoint" />
          </mxGeometry>
        </mxCell>
        <mxCell id="0A4ECjPYEgnLE-gKC64b-111" value="&lt;div style=&quot;font-size: 6px;&quot;&gt;tS&lt;/div&gt;" style="text;html=1;align=center;verticalAlign=middle;whiteSpace=wrap;rounded=0;fontSize=6;fontColor=#007FFF;allowArrows=0;connectable=0;spacingLeft=2;spacingTop=2;spacingBottom=2;spacingRight=2;" vertex="1" parent="1">
          <mxGeometry x="450" y="315" width="10" height="10" as="geometry" />
        </mxCell>
        <mxCell id="0A4ECjPYEgnLE-gKC64b-112" value="" style="endArrow=classicThin;html=1;rounded=0;strokeWidth=0.1;strokeColor=#007FFF;startSize=2;endSize=2;endFill=1;startArrow=classicThin;startFill=1;dashed=1;" edge="1" parent="1">
          <mxGeometry width="50" height="50" relative="1" as="geometry">
            <mxPoint x="390" y="355" as="sourcePoint" />
            <mxPoint x="390" y="325" as="targetPoint" />
          </mxGeometry>
        </mxCell>
        <mxCell id="0A4ECjPYEgnLE-gKC64b-113" value="&lt;div style=&quot;font-size: 6px;&quot;&gt;tH&lt;/div&gt;" style="text;html=1;align=center;verticalAlign=middle;whiteSpace=wrap;rounded=0;fontSize=6;fontColor=#007FFF;allowArrows=0;connectable=0;spacingLeft=2;spacingTop=2;spacingBottom=2;spacingRight=2;" vertex="1" parent="1">
          <mxGeometry x="380" y="335.36" width="10" height="10" as="geometry" />
        </mxCell>
        <mxCell id="0A4ECjPYEgnLE-gKC64b-114" value="" style="endArrow=classicThin;html=1;rounded=0;strokeWidth=0.1;strokeColor=#007FFF;startSize=2;endSize=2;endFill=1;startArrow=classicThin;startFill=1;dashed=1;" edge="1" parent="1">
          <mxGeometry width="50" height="50" relative="1" as="geometry">
            <mxPoint x="420" y="285" as="sourcePoint" />
            <mxPoint x="420" y="280" as="targetPoint" />
          </mxGeometry>
        </mxCell>
        <mxCell id="0A4ECjPYEgnLE-gKC64b-115" value="" style="endArrow=classicThin;html=1;rounded=0;strokeWidth=0.1;strokeColor=#007FFF;startSize=2;endSize=2;endFill=1;startArrow=classicThin;startFill=1;dashed=1;" edge="1" parent="1">
          <mxGeometry width="50" height="50" relative="1" as="geometry">
            <mxPoint x="405" y="300" as="sourcePoint" />
            <mxPoint x="400" y="300" as="targetPoint" />
          </mxGeometry>
        </mxCell>
        <mxCell id="0A4ECjPYEgnLE-gKC64b-116" value="&lt;div style=&quot;&quot;&gt;&lt;span style=&quot;background-color: initial;&quot;&gt;tP&lt;/span&gt;&lt;/div&gt;" style="text;html=1;align=right;verticalAlign=middle;whiteSpace=wrap;rounded=0;fontSize=10;fontColor=#007FFF;allowArrows=0;connectable=0;spacingLeft=2;spacingTop=2;spacingBottom=2;spacingRight=2;" vertex="1" parent="1">
          <mxGeometry x="382" y="292.11" width="20" height="14.5" as="geometry" />
        </mxCell>
      </root>
    </mxGraphModel>
  </diagram>
</mxfile>
